<svg xmlns="http://www.w3.org/2000/svg" viewBox="0 0 300 300" role="img" aria-labelledby="alphaberaTitle">
  <title id="alphaberaTitle">Alphabera Global Logo</title>
  <defs>
    <radialGradient id="alphaberaBg" cx="50%" cy="35%" r="65%">
      <stop offset="0%" stop-color="#b13a52" />
      <stop offset="55%" stop-color="#7b1830" />
      <stop offset="100%" stop-color="#34101d" />
    </radialGradient>
    <linearGradient id="alphaberaGold" x1="0%" y1="0%" x2="100%" y2="100%">
      <stop offset="0%" stop-color="#f7e8b0" />
      <stop offset="45%" stop-color="#d6a64d" />
      <stop offset="100%" stop-color="#8c5b17" />
    </linearGradient>
    <filter id="alphaberaShadow" x="-20%" y="-20%" width="140%" height="140%">
      <feDropShadow dx="0" dy="6" stdDeviation="6" flood-color="#000000" flood-opacity="0.45" />
    </filter>
  </defs>
  <circle cx="150" cy="150" r="132" fill="url(#alphaberaBg)" />
  <g filter="url(#alphaberaShadow)">
    <path d="M150 82 L114 138 H132 L150 110 L168 138 H186 Z" fill="url(#alphaberaGold)" />
    <path d="M150 100 L130 132 H141.5 L150 118 L158.5 132 H170 Z" fill="#f5ebc8" />
    <rect x="58" y="137" width="74" height="2.8" rx="1.4" fill="url(#alphaberaGold)" />
    <rect x="168" y="137" width="74" height="2.8" rx="1.4" fill="url(#alphaberaGold)" />
    <text
      x="150"
      y="175"
      text-anchor="middle"
      font-size="28"
      font-weight="700"
      letter-spacing="3"
      font-family="Inter, Arial, sans-serif"
      fill="#f8f4ef"
    >
      ALPHABERA
    </text>
    <rect x="66" y="183" width="40" height="2.4" rx="1.2" fill="url(#alphaberaGold)" />
    <rect x="194" y="183" width="40" height="2.4" rx="1.2" fill="url(#alphaberaGold)" />
    <text
      x="150"
      y="192"
      text-anchor="middle"
      font-size="13"
      font-weight="600"
      letter-spacing="5"
      font-family="Inter, Arial, sans-serif"
      fill="#f3e1aa"
    >
      GLOBAL
    </text>
    <path
      d="M114 223 C126 208 141 208 150 223 C159 238 174 238 186 223"
      fill="none"
      stroke="url(#alphaberaGold)"
      stroke-width="4"
      stroke-linecap="round"
    />
    <path
      d="M114 223 C126 238 141 238 150 223 C159 208 174 208 186 223"
      fill="none"
      stroke="url(#alphaberaGold)"
      stroke-width="4"
      stroke-linecap="round"
    />
  </g>
</svg>
